<svg xmlns="http://www.w3.org/2000/svg" width="299" height="299" xmlns:v="https://vecta.io/nano"><g fill="none" stroke="red"><g stroke-linejoin="round"><path d="M286.898 149.5c0 75.883-61.515 137.398-137.398 137.398S12.102 225.383 12.102 149.5 73.617 12.102 149.5 12.102 286.898 73.617 286.898 149.5z" stroke-width="7"/><path d="M277.645 149.5c.007 45.786-24.416 88.098-64.067 110.993s-88.505 22.895-128.156 0S21.348 195.286 21.355 149.5c-.007-45.786 24.416-88.098 64.067-110.993s88.505-22.895 128.156 0 64.074 65.207 64.067 110.993z" stroke-width="2.5"/></g><path d="M150.06 30.196v240.727" stroke-width="10"/></g><path d="M126.723 53.106c-.328 15.253 33.765 7.458 33.765 25.242s-32.1 42.916-31.798 61.63c.272 16.85 32.048 39.717 31.798 56.712-.326 22.49-28.112 35.07-36.06 50.156-1.804 3.425 3.278 7.212 5.245 4.917 11.038-12.878 38.562-30.604 39.338-54.1.63-19.085-30.494-47.32-30.16-58.023.57-17.858 33.297-36.886 34.093-61.957 1.196-37.68-45.873-40.49-46.222-24.586z" fill="red" fill-rule="evenodd"/></svg>